<?xml version="1.0" encoding="UTF-8" standalone="no"?><!-- Generator: Gravit.io --><svg xmlns="http://www.w3.org/2000/svg" xmlns:xlink="http://www.w3.org/1999/xlink" style="isolation:isolate" viewBox="0 0 256 48" width="256pt" height="48pt"><defs><clipPath id="_clipPath_HmTOdZnFP1s6k7BU43tdsalT2bVo0ZpZ"><rect width="256" height="48"/></clipPath></defs><g clip-path="url(#_clipPath_HmTOdZnFP1s6k7BU43tdsalT2bVo0ZpZ)"><rect x="48" y="11" width="75.213" height="4" transform="matrix(1,0,0,1,0,0)" fill="rgb(187,146,41)"/><rect x="132.787" y="11" width="75.213" height="4" transform="matrix(1,0,0,1,0,0)" fill="rgb(187,146,41)"/><rect x="48" y="33" width="75.213" height="4" transform="matrix(1,0,0,1,0,0)" fill="rgb(187,146,41)"/><rect x="132.787" y="33" width="75.213" height="4" transform="matrix(1,0,0,1,0,0)" fill="rgb(187,146,41)"/><rect x="0" y="22" width="121.649" height="4" transform="matrix(1,0,0,1,0,0)" fill="rgb(187,146,41)"/><rect x="134.351" y="22" width="121.649" height="4" transform="matrix(1,0,0,1,0,0)" fill="rgb(187,146,41)"/><rect x="114" y="10" width="28" height="28" transform="matrix(0.707,0.707,-0.707,0.707,54.461,-83.48)" fill="rgb(223,172,46)"/><rect x="117.54" y="13.747" width="21.92" height="20.506" transform="matrix(0.707,0.707,-0.707,0.707,54.607,-83.834)" fill="none" vector-effect="non-scaling-stroke" stroke-width="2" stroke="rgb(198,153,40)" stroke-linejoin="miter" stroke-linecap="square" stroke-miterlimit="2"/></g></svg>