<?xml version="1.0" encoding="UTF-8" standalone="no"?><!-- Generator: Gravit.io --><svg xmlns="http://www.w3.org/2000/svg" xmlns:xlink="http://www.w3.org/1999/xlink" style="isolation:isolate" viewBox="0 0 256 512" width="256pt" height="512pt"><defs><clipPath id="_clipPath_Gl4whCCN2PIeGtrGScFkVeYNsLa7lZmT"><rect width="256" height="512"/></clipPath></defs><g clip-path="url(#_clipPath_Gl4whCCN2PIeGtrGScFkVeYNsLa7lZmT)"><g><path d="M 12.376 277.114 L 188.582 199.881 C 193.286 197.819 198.778 199.964 200.84 204.668 L 235.119 282.875 C 237.181 287.578 235.036 293.071 230.332 295.133 L 54.126 372.366 C 49.422 374.428 43.929 372.283 41.868 367.579 L 7.589 289.373 C 5.527 284.669 7.672 279.176 12.376 277.114 Z" style="stroke:none;fill:#333333;stroke-miterlimit:10;"/><path d=" M 12.096 277.237 L 34.993 267.201 L 76.743 362.453 L 53.846 372.489 C 49.297 374.483 43.984 372.408 41.99 367.859 L 7.466 289.093 C 5.472 284.544 7.547 279.231 12.096 277.237 Z " fill="rgb(159,22,22)"/><path d=" M 230.612 295.01 L 207.715 305.046 L 165.964 209.794 L 188.862 199.758 C 193.411 197.764 198.723 199.839 200.718 204.388 L 235.242 283.154 C 237.236 287.704 235.161 293.016 230.612 295.01 Z " fill="rgb(27,166,217)"/></g></g></svg>