<?xml version="1.0" encoding="UTF-8" standalone="no"?><!-- Generator: Gravit.io --><svg xmlns="http://www.w3.org/2000/svg" xmlns:xlink="http://www.w3.org/1999/xlink" style="isolation:isolate" viewBox="0 0 400 400" width="400pt" height="400pt"><defs><clipPath id="_clipPath_K3DGrrYk1wxeXSOcCGBTzugpvP0Pfxnb"><rect width="400" height="400"/></clipPath></defs><g clip-path="url(#_clipPath_K3DGrrYk1wxeXSOcCGBTzugpvP0Pfxnb)"><g><path d=" M 246.08 74.546 Q 236.649 81.13 216.108 86.885 L 273.49 113.643 Q 265.509 94.337 264.442 83.109 Q 263.386 71.993 267.477 51.631 Q 255.168 68.202 246.08 74.546 Z " fill="rgb(240,231,98)"/><path d=" M 140.922 79.437 Q 138.836 90.767 128.259 109.417 L 187.924 87.399 Q 168.668 79.517 160.015 72.391 Q 151.448 65.336 140.044 48.126 Q 142.931 68.518 140.922 79.437 Z " fill="rgb(240,231,98)"/><path d=" M 74.55 153.689 Q 81.032 163.129 86.614 183.749 L 113.611 125.853 Q 94.361 134.012 83.189 135.162 Q 72.13 136.3 51.911 132.324 Q 68.305 144.592 74.55 153.689 Z " fill="rgb(240,231,98)"/><path d=" M 77.172 252.261 Q 88.424 254.281 106.896 264.792 L 85.41 204.932 Q 77.442 224.353 70.297 233.106 Q 63.224 241.77 46.034 253.357 Q 66.33 250.314 77.172 252.261 Z " fill="rgb(240,231,98)"/><path d=" M 153.478 318.66 Q 162.909 312.076 183.45 306.321 L 126.067 279.563 Q 134.049 298.87 135.116 310.097 Q 136.172 321.213 132.081 341.575 Q 144.39 325.004 153.478 318.66 Z " fill="rgb(240,231,98)"/><path d=" M 253.801 320.563 Q 255.886 309.233 266.464 290.583 L 206.798 312.601 Q 226.054 320.483 234.708 327.609 Q 243.275 334.664 254.678 351.874 Q 251.791 331.482 253.801 320.563 Z " fill="rgb(240,231,98)"/><path d=" M 319.291 246.198 Q 312.81 236.757 307.227 216.137 L 280.23 274.034 Q 299.481 265.874 310.652 264.725 Q 321.711 263.586 341.93 267.562 Q 325.537 255.295 319.291 246.198 Z " fill="rgb(240,231,98)"/><path d=" M 322.828 149.299 Q 311.576 147.279 293.104 136.768 L 314.59 196.628 Q 322.558 177.206 329.703 168.454 Q 336.776 159.79 353.966 148.202 Q 333.67 151.246 322.828 149.299 Z " fill="rgb(240,231,98)"/></g></g></svg>