<?xml version="1.0" encoding="UTF-8" standalone="no"?><!-- Generator: Gravit.io --><svg xmlns="http://www.w3.org/2000/svg" xmlns:xlink="http://www.w3.org/1999/xlink" style="isolation:isolate" viewBox="0 0 400 400" width="400pt" height="400pt"><defs><clipPath id="_clipPath_Y2zA7hJvoayAVoL7aC9s7CBHuEeUA6oP"><rect width="400" height="400"/></clipPath></defs><g clip-path="url(#_clipPath_Y2zA7hJvoayAVoL7aC9s7CBHuEeUA6oP)"><g><path d=" M 191.877 74.734 Q 186.33 84.31 170.758 97.681 L 231.679 97.681 Q 216.868 84.091 211.372 74.734 Q 205.931 65.471 201.218 46.05 Q 197.223 65.507 191.877 74.734 Z " fill="rgb(255,250,190)"/><path d=" M 102.164 121.76 Q 104.953 132.489 103.313 153.054 L 146.39 109.591 Q 126.393 110.548 115.949 107.852 Q 105.609 105.183 88.667 94.813 Q 99.477 111.422 102.164 121.76 Z " fill="rgb(255,250,190)"/><path d=" M 74.479 213.5 Q 83.97 219.097 97.223 234.808 L 97.223 173.342 Q 83.754 188.286 74.479 193.831 Q 65.298 199.32 46.05 204.075 Q 65.334 208.107 74.479 213.5 Z " fill="rgb(255,250,190)"/><path d=" M 116.849 298.392 Q 127.483 295.578 147.865 297.233 L 104.788 253.77 Q 105.736 273.946 103.065 284.484 Q 100.42 294.916 90.141 312.011 Q 106.603 301.103 116.849 298.392 Z " fill="rgb(255,250,190)"/><path d=" M 210.391 325.266 Q 215.938 315.69 231.51 302.319 L 170.59 302.319 Q 185.401 315.909 190.897 325.266 Q 196.337 334.529 201.05 353.95 Q 205.046 334.493 210.391 325.266 Z " fill="rgb(255,250,190)"/><path d=" M 298.65 286.131 Q 295.862 275.402 297.502 254.837 L 254.424 298.3 Q 274.421 297.343 284.866 300.039 Q 295.205 302.707 312.148 313.078 Q 301.337 296.469 298.65 286.131 Z " fill="rgb(255,250,190)"/><path d=" M 325.521 194.65 Q 316.03 189.053 302.777 173.342 L 302.777 234.808 Q 316.246 219.865 325.521 214.319 Q 334.702 208.83 353.95 204.075 Q 334.666 200.044 325.521 194.65 Z " fill="rgb(255,250,190)"/><path d=" M 289.202 108.713 Q 278.568 111.526 258.186 109.872 L 301.263 153.335 Q 300.315 133.159 302.987 122.621 Q 305.631 112.189 315.91 95.094 Q 299.449 106.002 289.202 108.713 Z " fill="rgb(255,250,190)"/></g></g></svg>