<?xml version="1.0" encoding="UTF-8" standalone="no"?><!-- Generator: Gravit.io --><svg xmlns="http://www.w3.org/2000/svg" xmlns:xlink="http://www.w3.org/1999/xlink" style="isolation:isolate" viewBox="0 0 380 200" width="380pt" height="200pt"><defs><clipPath id="_clipPath_ZNWAOGrspN7Haj5BZYtNziQ3Xqqy0cia"><rect width="380" height="200"/></clipPath></defs><g clip-path="url(#_clipPath_ZNWAOGrspN7Haj5BZYtNziQ3Xqqy0cia)"><path d=" M 346.333 55.667 L 346.333 70 C 346.333 72.208 344.541 74 342.333 74 L 128.667 74 C 126.459 74 124.667 75.792 124.667 78 L 124.667 88 C 124.667 90.208 126.459 92 128.667 92 L 246.333 92 C 248.541 92 250.333 93.792 250.333 96 L 250.333 111 L 43.667 111 C 41.459 111 39.667 109.208 39.667 107 L 39.667 96 C 39.667 93.792 41.459 92 43.667 92 L 71 92 C 73.208 92 75 90.208 75 88 L 75 78 C 75 75.792 73.208 74 71 74 L 60.667 74 C 58.459 74 56.667 72.208 56.667 70 L 56.667 55.667 C 56.667 53.459 58.459 51.667 60.667 51.667 L 342.333 51.667 C 344.541 51.667 346.333 53.459 346.333 55.667 Z " fill="rgb(255,255,255)" fill-opacity="0.8"/><path d=" M 320.667 133.37 L 320.667 143.808 C 320.667 145.416 319.361 146.721 317.754 146.721 L 200.246 146.721 C 198.639 146.721 197.333 148.026 197.333 149.634 L 197.333 156.917 C 197.333 158.524 198.639 159.83 200.246 159.83 L 265.087 159.83 C 266.695 159.83 268 161.135 268 162.743 L 268 173.667 L 100.246 173.667 C 98.639 173.667 97.333 172.361 97.333 170.754 L 97.333 162.743 C 97.333 161.135 98.639 159.83 100.246 159.83 L 140.42 159.83 C 142.028 159.83 143.333 158.524 143.333 156.917 L 143.333 149.634 C 143.333 148.026 142.028 146.721 140.42 146.721 L 87.58 146.721 C 85.972 146.721 84.667 145.416 84.667 143.808 L 84.667 133.37 C 84.667 131.762 85.972 130.457 87.58 130.457 L 317.754 130.457 C 319.361 130.457 320.667 131.762 320.667 133.37 Z " fill="rgb(255,255,255)" fill-opacity="0.8"/></g></svg>