<?xml version="1.0" encoding="UTF-8" standalone="no"?><!-- Generator: Gravit.io --><svg xmlns="http://www.w3.org/2000/svg" xmlns:xlink="http://www.w3.org/1999/xlink" style="isolation:isolate" viewBox="0 0 380 200" width="380pt" height="200pt"><defs><clipPath id="_clipPath_clh3QgXRFwWTK7keJGAe9OcsQtiDXIwC"><rect width="380" height="200"/></clipPath></defs><mask id="_mask_8gEZpmy1UeUhPbGtGK4RQQBcWBcPwZc1" x="-200%" y="-200%" width="400%" height="400%"><rect x="-200%" y="-200%" width="400%" height="400%" style="fill:white;"/><path d=" M 145 51 L 145 65 C 145 67.208 146.792 69 149 69 L 171 69 C 173.208 69 175 67.208 175 65 L 175 51 C 175 48.792 173.208 47 171 47 L 149 47 C 146.792 47 145 48.792 145 51 Z " fill="black" stroke="none"/></mask><g clip-path="url(#_clipPath_clh3QgXRFwWTK7keJGAe9OcsQtiDXIwC)" mask="url(#_mask_8gEZpmy1UeUhPbGtGK4RQQBcWBcPwZc1)"><path d=" M 51 28 L 51 39 C 51 43.415 54.585 47 59 47 L 120 47 C 122.208 47 124 48.792 124 51 L 124 65 C 124 67.208 122.208 69 120 69 L 35 69 C 30.585 69 27 72.585 27 77 L 27 86 C 27 90.415 30.585 94 35 94 L 159 94 C 161.208 94 163 95.792 163 98 L 163 114 C 163 116.208 161.208 118 159 118 L 77 118 C 72.585 118 69 121.585 69 126 L 69 136 C 69 140.415 72.585 144 77 144 L 248.5 144 C 250.708 144 252.5 145.792 252.5 148 L 252.5 158 C 252.5 160.208 250.708 162 248.5 162 L 53 162 C 48.585 162 45 165.585 45 170 L 45 172 C 45 176.415 48.585 180 53 180 L 345 180 C 349.415 180 353 176.415 353 172 L 353 170 C 353 165.585 349.415 162 345 162 L 282.375 162 C 280.167 162 278.375 160.208 278.375 158 L 278.375 148 C 278.375 145.792 280.167 144 282.375 144 L 322 144 C 326.415 144 330 140.415 330 136 L 330 126 C 330 121.585 326.415 118 322 118 L 198 118 C 195.792 118 194 116.208 194 114 L 194 98 C 194 95.792 195.792 94 198 94 L 305 94 C 309.415 94 313 90.415 313 86 L 313 77 C 313 72.585 309.415 69 305 69 L 198 69 C 195.792 69 194 67.208 194 65 L 194 51 C 194 48.792 195.792 47 198 47 L 337 47 C 341.415 47 345 43.415 345 39 L 345 28 C 345 23.585 341.415 20 337 20 L 59 20 C 54.585 20 51 23.585 51 28 Z " fill="rgb(221,221,221)"/></g></svg>