<?xml version="1.0" encoding="UTF-8" standalone="no"?><!-- Generator: Gravit.io --><svg xmlns="http://www.w3.org/2000/svg" xmlns:xlink="http://www.w3.org/1999/xlink" style="isolation:isolate" viewBox="0 0 380 200" width="380pt" height="200pt"><defs><clipPath id="_clipPath_av7til9EQxdnvHpuMqKWm6yf7aO0f9z9"><rect width="380" height="200"/></clipPath></defs><g clip-path="url(#_clipPath_av7til9EQxdnvHpuMqKWm6yf7aO0f9z9)"><path d=" M 31 200 L 62 137 L 77 152 L 90 123 L 95 128 L 104 104 L 110 106 L 127 56 L 151 85 L 163 106 L 196 123 L 217 85 L 224 61 L 233 69 L 242 44 L 257 76 L 280 102 L 293 128 L 321 152 L 349 200 L 31 200 Z " fill="rgb(129,140,134)"/><path d=" M 95 128 L 90 123 L 77 152 L 64 200 L 80 155 L 95 128 Z " fill="rgb(117,132,127)"/><path d=" M 110 106 L 107 123 L 91 168 L 91 200 L 163 200 L 126 171 L 116 126 L 110 106 Z " fill="rgb(117,132,127)"/><path d=" M 127 56 L 129 99 L 186 132 L 196 123 L 163 106 L 151 85 L 127 56 Z " fill="rgb(117,132,127)"/><path d=" M 224 61 L 237 87 L 233 69 L 224 61 Z " fill="rgb(117,132,127)"/><path d=" M 242 44 L 252 81 L 288 128 L 315 160 L 304 200 L 349 200 L 320 151 L 292 126 L 279 101 L 257 76 L 242 44 Z " fill="rgb(117,132,127)"/><path d=" M 181 153.392 L 187 131 L 185.053 131 L 180 148 L 177 166 L 185.053 186.448 L 187 200 L 192 200 L 180 166 L 181 153.392 Z " fill="rgb(117,132,127)"/><path d=" M 124 77 L 119.125 79.18 L 127 56 L 146 79 L 137 76 L 130 79 L 124 77 Z " fill="rgb(94,118,124)"/><path d=" M 128 78.328 L 126.984 56.016 L 119.083 79.277 L 124 77 L 128 78.328 Z " fill="rgb(211,229,229)"/><path d=" M 219.92 75 L 229 76 L 233 69 L 224 61 L 219.92 75 Z " fill="rgb(211,229,229)"/><path d=" M 230.326 73.68 L 224 61 L 233 69 L 230.326 73.68 Z " fill="rgb(94,118,124)"/><path d=" M 239.121 52 L 244.438 53 L 245.738 51.988 L 242 44 L 239.121 52 Z " fill="rgb(211,229,229)"/><path d=" M 242 44 L 244.438 53.008 L 245.754 52 L 242 44 Z " fill="rgb(94,118,124)"/></g></svg>