<?xml version="1.0" encoding="UTF-8" standalone="no"?><!-- Generator: Gravit.io --><svg xmlns="http://www.w3.org/2000/svg" xmlns:xlink="http://www.w3.org/1999/xlink" style="isolation:isolate" viewBox="0 0 526 526" width="526pt" height="526pt"><defs><clipPath id="_clipPath_WJCKivVjLKQWKhzNx9Xmo9OkWUcmXEmb"><rect width="526" height="526"/></clipPath></defs><g clip-path="url(#_clipPath_WJCKivVjLKQWKhzNx9Xmo9OkWUcmXEmb)"><clipPath id="_clipPath_1nW2lnGdyu15KBNqSQWlnKyrshRrMeEW"><rect x="0" y="0" width="567.467" height="283.733" transform="matrix(1,0,0,1,0,0)" fill="rgb(255,255,255)"/></clipPath><g clip-path="url(#_clipPath_1nW2lnGdyu15KBNqSQWlnKyrshRrMeEW)"><g><rect x="0" y="0" width="567.467" height="283.733" transform="matrix(1,0,0,1,0,0)" fill="none"/><path d=" M 454.147 163.169 L 451.674 163.99 C 451.316 164.109 450.924 164.493 450.799 164.849 L 449.928 167.331 C 449.803 167.686 449.605 167.684 449.487 167.327 L 448.666 164.852 C 448.547 164.496 448.162 164.104 447.808 163.979 L 445.325 163.108 C 444.97 162.983 444.971 162.785 445.329 162.667 L 447.803 161.845 C 448.161 161.727 448.552 161.342 448.677 160.987 L 449.549 158.505 C 449.673 158.149 449.871 158.151 449.99 158.508 L 450.81 160.983 C 450.929 161.34 451.314 161.732 451.669 161.857 L 454.152 162.729 C 454.506 162.853 454.505 163.05 454.147 163.169 Z " fill="rgb(242,229,114)"/><path d=" M 40.973 170.741 L 38.498 171.562 C 38.141 171.681 37.749 172.065 37.625 172.42 L 36.752 174.903 C 36.628 175.257 36.431 175.256 36.312 174.898 L 35.491 172.425 C 35.372 172.067 34.988 171.675 34.632 171.55 L 32.151 170.679 C 31.795 170.554 31.797 170.356 32.154 170.238 L 34.629 169.417 C 34.986 169.298 35.377 168.913 35.502 168.559 L 36.373 166.076 C 36.499 165.721 36.696 165.722 36.814 166.08 L 37.636 168.554 C 37.754 168.912 38.139 169.303 38.495 169.428 L 40.976 170.3 C 41.332 170.425 41.33 170.622 40.973 170.741 Z " fill="rgb(242,229,114)"/><path d=" M 228.567 122.413 L 226.093 123.234 C 225.735 123.353 225.344 123.738 225.219 124.092 L 224.348 126.575 C 224.222 126.93 224.025 126.929 223.907 126.571 L 223.085 124.097 C 222.967 123.739 222.582 123.348 222.227 123.223 L 219.745 122.351 C 219.39 122.227 219.391 122.029 219.749 121.91 L 222.223 121.09 C 222.581 120.971 222.972 120.586 223.096 120.231 L 223.969 117.748 C 224.093 117.394 224.291 117.395 224.41 117.753 L 225.23 120.226 C 225.349 120.584 225.734 120.976 226.089 121.101 L 228.572 121.972 C 228.926 122.097 228.925 122.295 228.567 122.413 Z " fill="rgb(242,229,114)"/><path d=" M 121.647 37.445 L 119.174 38.265 C 118.816 38.384 118.424 38.768 118.299 39.124 L 117.428 41.607 C 117.303 41.962 117.105 41.959 116.987 41.602 L 116.166 39.127 C 116.047 38.771 115.662 38.379 115.308 38.254 L 112.825 37.383 C 112.47 37.258 112.471 37.06 112.829 36.942 L 115.303 36.121 C 115.661 36.002 116.052 35.617 116.177 35.263 L 117.049 32.78 C 117.173 32.425 117.371 32.427 117.49 32.784 L 118.31 35.258 C 118.429 35.616 118.814 36.008 119.169 36.132 L 121.652 37.004 C 122.006 37.128 122.005 37.326 121.647 37.445 Z " fill="rgb(242,229,114)"/><path d=" M 53.708 70.077 L 51.233 70.898 C 50.876 71.016 50.483 71.401 50.359 71.756 L 49.487 74.238 C 49.363 74.593 49.165 74.592 49.046 74.234 L 48.226 71.76 C 48.107 71.402 47.723 71.011 47.367 70.886 L 44.885 70.015 C 44.53 69.889 44.532 69.692 44.889 69.573 L 47.364 68.752 C 47.72 68.634 48.112 68.249 48.237 67.894 L 49.108 65.412 C 49.233 65.057 49.431 65.058 49.549 65.416 L 50.37 67.89 C 50.489 68.248 50.874 68.639 51.228 68.764 L 53.711 69.635 C 54.067 69.761 54.064 69.958 53.708 70.077 Z " fill="rgb(242,229,114)"/><path d=" M 108.794 117.735 L 106.319 118.556 C 105.962 118.675 105.57 119.059 105.446 119.414 L 104.573 121.897 C 104.449 122.251 104.252 122.25 104.133 121.892 L 103.312 119.418 C 103.194 119.06 102.809 118.669 102.453 118.544 L 99.972 117.673 C 99.616 117.548 99.618 117.35 99.975 117.232 L 102.45 116.41 C 102.807 116.292 103.198 115.907 103.323 115.553 L 104.194 113.07 C 104.32 112.715 104.517 112.716 104.636 113.074 L 105.457 115.548 C 105.575 115.906 105.96 116.297 106.316 116.423 L 108.797 117.294 C 109.153 117.419 109.151 117.616 108.794 117.735 Z " fill="rgb(242,229,114)"/><path d=" M 168.453 64.11 L 165.978 64.932 C 165.622 65.05 165.23 65.435 165.105 65.791 L 164.234 68.272 C 164.109 68.628 163.911 68.626 163.793 68.269 L 162.972 65.794 C 162.853 65.437 162.468 65.045 162.114 64.921 L 159.631 64.048 C 159.275 63.924 159.277 63.727 159.634 63.608 L 162.109 62.787 C 162.466 62.668 162.859 62.284 162.983 61.928 L 163.855 59.447 C 163.979 59.091 164.177 59.093 164.296 59.45 L 165.116 61.925 C 165.235 62.282 165.619 62.673 165.975 62.798 L 168.457 63.669 C 168.812 63.795 168.81 63.992 168.453 64.11 Z " fill="rgb(242,229,114)"/><path d=" M 256.864 217.011 L 254.39 217.831 C 254.032 217.949 253.641 218.335 253.516 218.69 L 252.645 221.172 C 252.519 221.527 252.322 221.526 252.203 221.168 L 251.382 218.694 C 251.264 218.336 250.879 217.945 250.524 217.82 L 248.042 216.948 C 247.687 216.823 247.688 216.626 248.046 216.507 L 250.52 215.686 C 250.878 215.568 251.269 215.183 251.393 214.828 L 252.266 212.346 C 252.39 211.991 252.588 211.992 252.707 212.35 L 253.527 214.824 C 253.645 215.182 254.031 215.573 254.386 215.697 L 256.868 216.569 C 257.223 216.694 257.222 216.892 256.864 217.011 Z " fill="rgb(242,229,114)"/><path d=" M 228.567 37.445 L 226.093 38.265 C 225.735 38.384 225.344 38.768 225.219 39.124 L 224.348 41.607 C 224.222 41.962 224.025 41.959 223.907 41.602 L 223.085 39.127 C 222.967 38.771 222.582 38.379 222.227 38.254 L 219.745 37.383 C 219.39 37.258 219.391 37.06 219.749 36.942 L 222.223 36.121 C 222.581 36.002 222.972 35.617 223.096 35.263 L 223.969 32.78 C 224.093 32.425 224.291 32.427 224.41 32.784 L 225.23 35.258 C 225.349 35.616 225.734 36.008 226.089 36.132 L 228.572 37.004 C 228.926 37.128 228.925 37.326 228.567 37.445 Z " fill="rgb(242,229,114)"/><path d=" M 515.351 127.091 L 512.877 127.913 C 512.519 128.031 512.128 128.416 512.002 128.771 L 511.131 131.253 C 511.006 131.608 510.809 131.607 510.69 131.249 L 509.869 128.775 C 509.75 128.417 509.366 128.026 509.011 127.902 L 506.528 127.029 C 506.174 126.905 506.175 126.707 506.533 126.588 L 509.007 125.768 C 509.365 125.65 509.756 125.265 509.881 124.909 L 510.752 122.426 C 510.877 122.072 511.075 122.074 511.193 122.431 L 512.015 124.906 C 512.133 125.263 512.518 125.654 512.872 125.779 L 515.355 126.65 C 515.71 126.776 515.709 126.973 515.351 127.091 Z " fill="rgb(242,229,114)"/><path d=" M 454.147 23.772 L 451.674 24.593 C 451.316 24.711 450.924 25.096 450.799 25.451 L 449.928 27.933 C 449.803 28.288 449.605 28.287 449.487 27.929 L 448.666 25.455 C 448.547 25.097 448.162 24.706 447.808 24.582 L 445.325 23.709 C 444.97 23.585 444.971 23.387 445.329 23.268 L 447.803 22.448 C 448.161 22.33 448.552 21.944 448.677 21.589 L 449.549 19.107 C 449.673 18.752 449.871 18.753 449.99 19.111 L 450.81 21.585 C 450.929 21.943 451.314 22.334 451.669 22.459 L 454.152 23.33 C 454.506 23.456 454.505 23.653 454.147 23.772 Z " fill="rgb(242,229,114)"/><path d=" M 94.429 215.723 L 91.955 216.544 C 91.597 216.663 91.206 217.047 91.082 217.403 L 90.209 219.884 C 90.085 220.24 89.887 220.238 89.768 219.881 L 88.948 217.406 C 88.83 217.049 88.444 216.657 88.089 216.533 L 85.607 215.661 C 85.252 215.536 85.253 215.339 85.611 215.221 L 88.085 214.399 C 88.443 214.281 88.834 213.896 88.959 213.54 L 89.83 211.059 C 89.956 210.703 90.153 210.705 90.272 211.062 L 91.093 213.537 C 91.211 213.894 91.596 214.285 91.951 214.41 L 94.433 215.282 C 94.788 215.407 94.787 215.604 94.429 215.723 Z " fill="rgb(242,229,114)"/><path d=" M 182.488 226.367 L 180.014 227.188 C 179.656 227.307 179.265 227.692 179.141 228.046 L 178.269 230.529 C 178.144 230.884 177.946 230.882 177.828 230.524 L 177.006 228.051 C 176.888 227.693 176.503 227.301 176.149 227.177 L 173.666 226.305 C 173.311 226.18 173.312 225.983 173.67 225.864 L 176.144 225.043 C 176.502 224.924 176.893 224.539 177.019 224.185 L 177.89 221.702 C 178.015 221.347 178.212 221.349 178.331 221.707 L 179.152 224.18 C 179.271 224.538 179.655 224.93 180.01 225.055 L 182.493 225.926 C 182.847 226.051 182.846 226.249 182.488 226.367 Z " fill="rgb(242,229,114)"/><path d=" M 415.846 220.401 L 413.372 221.222 C 413.014 221.341 412.623 221.725 412.498 222.081 L 411.626 224.563 C 411.502 224.919 411.304 224.916 411.185 224.559 L 410.365 222.085 C 410.246 221.728 409.861 221.336 409.506 221.211 L 407.023 220.339 C 406.669 220.215 406.67 220.017 407.028 219.899 L 409.501 219.078 C 409.859 218.959 410.251 218.574 410.376 218.219 L 411.247 215.737 C 411.372 215.381 411.57 215.384 411.688 215.74 L 412.509 218.215 C 412.628 218.572 413.013 218.963 413.367 219.089 L 415.85 219.961 C 416.205 220.085 416.204 220.282 415.846 220.401 Z " fill="rgb(242,229,114)"/><path d=" M 311.662 254.814 L 309.188 255.635 C 308.83 255.753 308.439 256.138 308.315 256.493 L 307.443 258.975 C 307.319 259.33 307.12 259.329 307.002 258.971 L 306.182 256.497 C 306.063 256.139 305.677 255.748 305.323 255.624 L 302.84 254.752 C 302.485 254.626 302.486 254.429 302.844 254.31 L 305.318 253.489 C 305.676 253.371 306.067 252.986 306.193 252.631 L 307.064 250.149 C 307.189 249.794 307.386 249.795 307.505 250.153 L 308.326 252.627 C 308.445 252.985 308.829 253.376 309.184 253.501 L 311.667 254.372 C 312.021 254.498 312.02 254.695 311.662 254.814 Z " fill="rgb(242,229,114)"/><path d=" M 168.453 172.526 L 165.978 173.347 C 165.622 173.465 165.23 173.851 165.105 174.206 L 164.234 176.688 C 164.109 177.043 163.911 177.042 163.793 176.684 L 162.972 174.21 C 162.853 173.852 162.468 173.461 162.114 173.336 L 159.631 172.464 C 159.275 172.339 159.277 172.142 159.634 172.023 L 162.109 171.202 C 162.466 171.083 162.859 170.699 162.983 170.344 L 163.855 167.862 C 163.979 167.507 164.177 167.508 164.296 167.866 L 165.116 170.34 C 165.235 170.698 165.619 171.089 165.975 171.213 L 168.457 172.085 C 168.812 172.21 168.81 172.408 168.453 172.526 Z " fill="rgb(242,229,114)"/><path d=" M 500.697 70.077 L 498.224 70.898 C 497.866 71.016 497.474 71.401 497.349 71.756 L 496.478 74.238 C 496.353 74.593 496.155 74.592 496.037 74.234 L 495.216 71.76 C 495.097 71.402 494.712 71.011 494.358 70.886 L 491.875 70.015 C 491.52 69.889 491.521 69.692 491.879 69.573 L 494.353 68.752 C 494.711 68.634 495.102 68.249 495.227 67.894 L 496.099 65.412 C 496.223 65.057 496.421 65.058 496.54 65.416 L 497.36 67.89 C 497.479 68.248 497.864 68.639 498.219 68.764 L 500.702 69.635 C 501.056 69.761 501.055 69.958 500.697 70.077 Z " fill="rgb(242,229,114)"/><path d=" M 348.236 166.063 L 345.761 166.883 C 345.404 167.001 345.013 167.387 344.888 167.742 L 344.017 170.224 C 343.891 170.579 343.694 170.578 343.576 170.22 L 342.754 167.746 C 342.636 167.388 342.251 166.997 341.895 166.872 L 339.414 166.001 C 339.058 165.875 339.06 165.678 339.417 165.56 L 341.892 164.738 C 342.249 164.62 342.641 164.235 342.765 163.88 L 343.638 161.398 C 343.762 161.043 343.959 161.044 344.078 161.402 L 344.899 163.876 C 345.018 164.234 345.402 164.625 345.758 164.749 L 348.239 165.622 C 348.595 165.746 348.593 165.944 348.236 166.063 Z " fill="rgb(242,229,114)"/><path d=" M 536.654 254.814 L 534.18 255.635 C 533.822 255.753 533.431 256.138 533.307 256.493 L 532.434 258.975 C 532.31 259.33 532.112 259.329 531.993 258.971 L 531.173 256.497 C 531.055 256.139 530.669 255.748 530.314 255.624 L 527.832 254.752 C 527.477 254.626 527.478 254.429 527.836 254.31 L 530.31 253.489 C 530.668 253.371 531.059 252.986 531.184 252.631 L 532.055 250.149 C 532.181 249.794 532.378 249.795 532.497 250.153 L 533.318 252.627 C 533.436 252.985 533.821 253.376 534.176 253.501 L 536.658 254.372 C 537.013 254.498 537.012 254.695 536.654 254.814 Z " fill="rgb(242,229,114)"/><path d=" M 343.558 217.011 L 341.083 217.831 C 340.726 217.949 340.335 218.335 340.21 218.69 L 339.337 221.172 C 339.213 221.527 339.016 221.526 338.897 221.168 L 338.076 218.694 C 337.957 218.336 337.573 217.945 337.217 217.82 L 334.736 216.948 C 334.38 216.823 334.382 216.626 334.739 216.507 L 337.214 215.686 C 337.571 215.568 337.962 215.183 338.087 214.828 L 338.959 212.346 C 339.084 211.991 339.281 211.992 339.399 212.35 L 340.221 214.824 C 340.339 215.182 340.724 215.573 341.08 215.697 L 343.561 216.569 C 343.917 216.694 343.915 216.892 343.558 217.011 Z " fill="rgb(242,229,114)"/><path d=" M 348.236 122.413 L 345.761 123.234 C 345.404 123.353 345.013 123.738 344.888 124.092 L 344.017 126.575 C 343.891 126.93 343.694 126.929 343.576 126.571 L 342.754 124.097 C 342.636 123.739 342.251 123.348 341.895 123.223 L 339.414 122.351 C 339.058 122.227 339.06 122.029 339.417 121.91 L 341.892 121.09 C 342.249 120.971 342.641 120.586 342.765 120.231 L 343.638 117.748 C 343.762 117.394 343.959 117.395 344.078 117.753 L 344.899 120.226 C 345.018 120.584 345.402 120.976 345.758 121.101 L 348.239 121.972 C 348.595 122.097 348.593 122.295 348.236 122.413 Z " fill="rgb(242,229,114)"/><path d=" M 268.853 163.169 L 266.379 163.99 C 266.021 164.109 265.63 164.493 265.505 164.849 L 264.633 167.331 C 264.508 167.686 264.311 167.684 264.192 167.327 L 263.371 164.852 C 263.252 164.496 262.868 164.104 262.513 163.979 L 260.031 163.108 C 259.676 162.983 259.677 162.785 260.035 162.667 L 262.509 161.845 C 262.867 161.727 263.258 161.342 263.383 160.987 L 264.254 158.505 C 264.38 158.149 264.577 158.151 264.695 158.508 L 265.517 160.983 C 265.635 161.34 266.02 161.732 266.375 161.857 L 268.857 162.729 C 269.212 162.853 269.211 163.05 268.853 163.169 Z " fill="rgb(242,229,114)"/><path d=" M 520.029 199.664 L 517.555 200.485 C 517.197 200.604 516.806 200.988 516.682 201.344 L 515.809 203.826 C 515.685 204.182 515.487 204.179 515.368 203.822 L 514.548 201.348 C 514.43 200.991 514.044 200.598 513.689 200.474 L 511.207 199.602 C 510.852 199.478 510.853 199.281 511.211 199.162 L 513.685 198.341 C 514.043 198.222 514.434 197.838 514.559 197.482 L 515.43 195 C 515.556 194.644 515.753 194.647 515.872 195.003 L 516.693 197.478 C 516.811 197.835 517.196 198.227 517.551 198.352 L 520.033 199.223 C 520.388 199.348 520.387 199.545 520.029 199.664 Z " fill="rgb(242,229,114)"/><path d=" M 360.624 42.123 L 358.149 42.943 C 357.792 43.062 357.4 43.448 357.276 43.802 L 356.403 46.285 C 356.279 46.64 356.081 46.639 355.962 46.281 L 355.142 43.807 C 355.024 43.449 354.639 43.058 354.283 42.932 L 351.802 42.061 C 351.446 41.936 351.448 41.739 351.805 41.62 L 354.28 40.799 C 354.637 40.68 355.028 40.296 355.153 39.941 L 356.024 37.458 C 356.15 37.104 356.347 37.105 356.465 37.463 L 357.287 39.937 C 357.405 40.295 357.79 40.686 358.146 40.81 L 360.627 41.682 C 360.983 41.806 360.981 42.005 360.624 42.123 Z " fill="rgb(242,229,114)"/><path d=" M 290.145 60.72 L 287.671 61.54 C 287.313 61.659 286.922 62.043 286.798 62.399 L 285.926 64.882 C 285.801 65.237 285.603 65.234 285.484 64.877 L 284.664 62.402 C 284.546 62.046 284.16 61.654 283.805 61.529 L 281.323 60.658 C 280.968 60.533 280.969 60.335 281.327 60.217 L 283.801 59.396 C 284.159 59.277 284.55 58.892 284.675 58.538 L 285.547 56.055 C 285.672 55.7 285.869 55.702 285.988 56.06 L 286.809 58.533 C 286.928 58.891 287.312 59.283 287.667 59.407 L 290.149 60.279 C 290.504 60.403 290.503 60.601 290.145 60.72 Z " fill="rgb(242,229,114)"/><path d=" M 403.164 87.81 L 400.69 88.631 C 400.332 88.75 399.941 89.134 399.816 89.489 L 398.945 91.972 C 398.819 92.326 398.622 92.325 398.503 91.967 L 397.682 89.493 C 397.564 89.135 397.179 88.744 396.824 88.619 L 394.342 87.748 C 393.987 87.623 393.988 87.425 394.346 87.307 L 396.82 86.485 C 397.178 86.367 397.569 85.982 397.693 85.628 L 398.566 83.145 C 398.69 82.79 398.888 82.791 399.007 83.149 L 399.827 85.623 C 399.945 85.981 400.331 86.372 400.686 86.498 L 403.168 87.369 C 403.523 87.494 403.522 87.691 403.164 87.81 Z " fill="rgb(242,229,114)"/></g></g><clipPath id="_clipPath_DK8kOh5usEK7LXqJIduW6J1mDSdbRljF"><rect x="0" y="248.267" width="567.467" height="283.733" transform="matrix(1,0,0,1,0,0)" fill="rgb(255,255,255)"/></clipPath><g clip-path="url(#_clipPath_DK8kOh5usEK7LXqJIduW6J1mDSdbRljF)"><g><rect x="0" y="248.267" width="567.467" height="283.733" transform="matrix(1,0,0,1,0,0)" fill="none"/><path d=" M 454.147 411.436 L 451.674 412.257 C 451.316 412.375 450.924 412.76 450.799 413.116 L 449.928 415.597 C 449.803 415.953 449.605 415.951 449.487 415.594 L 448.666 413.119 C 448.547 412.762 448.162 412.371 447.808 412.246 L 445.325 411.375 C 444.97 411.249 444.971 411.052 445.329 410.933 L 447.803 410.112 C 448.161 409.994 448.552 409.609 448.677 409.253 L 449.549 406.772 C 449.673 406.416 449.871 406.418 449.99 406.775 L 450.81 409.25 C 450.929 409.607 451.314 409.999 451.669 410.123 L 454.152 410.995 C 454.506 411.12 454.505 411.317 454.147 411.436 Z " fill="rgb(242,229,114)"/><path d=" M 40.973 419.008 L 38.498 419.829 C 38.141 419.947 37.749 420.332 37.625 420.687 L 36.752 423.169 C 36.628 423.524 36.431 423.523 36.312 423.165 L 35.491 420.691 C 35.372 420.333 34.988 419.942 34.632 419.817 L 32.151 418.946 C 31.795 418.82 31.797 418.623 32.154 418.504 L 34.629 417.683 C 34.986 417.565 35.377 417.18 35.502 416.825 L 36.373 414.343 C 36.499 413.988 36.696 413.989 36.814 414.347 L 37.636 416.821 C 37.754 417.179 38.139 417.57 38.495 417.694 L 40.976 418.567 C 41.332 418.692 41.33 418.889 40.973 419.008 Z " fill="rgb(242,229,114)"/><path d=" M 228.567 370.68 L 226.093 371.501 C 225.735 371.62 225.344 372.004 225.219 372.359 L 224.348 374.842 C 224.222 375.196 224.025 375.195 223.907 374.837 L 223.085 372.363 C 222.967 372.005 222.582 371.614 222.227 371.49 L 219.745 370.618 C 219.39 370.494 219.391 370.295 219.749 370.177 L 222.223 369.357 C 222.581 369.238 222.972 368.852 223.096 368.498 L 223.969 366.015 C 224.093 365.66 224.291 365.661 224.41 366.019 L 225.23 368.493 C 225.349 368.851 225.734 369.242 226.089 369.368 L 228.572 370.239 C 228.926 370.364 228.925 370.561 228.567 370.68 Z " fill="rgb(242,229,114)"/><path d=" M 121.647 285.712 L 119.174 286.532 C 118.816 286.65 118.424 287.035 118.299 287.391 L 117.428 289.874 C 117.303 290.228 117.105 290.226 116.987 289.869 L 116.166 287.394 C 116.047 287.037 115.662 286.646 115.308 286.521 L 112.825 285.65 C 112.47 285.524 112.471 285.327 112.829 285.209 L 115.303 284.387 C 115.661 284.269 116.052 283.884 116.177 283.529 L 117.049 281.047 C 117.173 280.692 117.371 280.693 117.49 281.051 L 118.31 283.525 C 118.429 283.883 118.814 284.274 119.169 284.398 L 121.652 285.271 C 122.006 285.395 122.005 285.593 121.647 285.712 Z " fill="rgb(242,229,114)"/><path d=" M 53.708 318.343 L 51.233 319.165 C 50.876 319.283 50.483 319.668 50.359 320.022 L 49.487 322.505 C 49.363 322.86 49.165 322.859 49.046 322.501 L 48.226 320.027 C 48.107 319.669 47.723 319.278 47.367 319.152 L 44.885 318.281 C 44.53 318.156 44.532 317.959 44.889 317.84 L 47.364 317.019 C 47.72 316.9 48.112 316.516 48.237 316.161 L 49.108 313.678 C 49.233 313.324 49.431 313.325 49.549 313.683 L 50.37 316.157 C 50.489 316.515 50.874 316.906 51.228 317.031 L 53.711 317.902 C 54.067 318.027 54.064 318.225 53.708 318.343 Z " fill="rgb(242,229,114)"/><path d=" M 108.794 366.002 L 106.319 366.823 C 105.962 366.941 105.57 367.326 105.446 367.681 L 104.573 370.163 C 104.449 370.518 104.252 370.517 104.133 370.159 L 103.312 367.685 C 103.194 367.327 102.809 366.936 102.453 366.811 L 99.972 365.94 C 99.616 365.814 99.618 365.617 99.975 365.498 L 102.45 364.677 C 102.807 364.559 103.198 364.174 103.323 363.819 L 104.194 361.337 C 104.32 360.982 104.517 360.983 104.636 361.341 L 105.457 363.815 C 105.575 364.173 105.96 364.564 106.316 364.689 L 108.797 365.56 C 109.153 365.686 109.151 365.883 108.794 366.002 Z " fill="rgb(242,229,114)"/><path d=" M 168.453 312.377 L 165.978 313.198 C 165.622 313.317 165.23 313.702 165.105 314.057 L 164.234 316.539 C 164.109 316.895 163.911 316.892 163.793 316.536 L 162.972 314.061 C 162.853 313.704 162.468 313.311 162.114 313.187 L 159.631 312.315 C 159.275 312.191 159.277 311.994 159.634 311.875 L 162.109 311.054 C 162.466 310.935 162.859 310.551 162.983 310.195 L 163.855 307.713 C 163.979 307.357 164.177 307.36 164.296 307.717 L 165.116 310.191 C 165.235 310.548 165.619 310.94 165.975 311.065 L 168.457 311.936 C 168.812 312.061 168.81 312.259 168.453 312.377 Z " fill="rgb(242,229,114)"/><path d=" M 256.864 465.277 L 254.39 466.097 C 254.032 466.216 253.641 466.602 253.516 466.956 L 252.645 469.439 C 252.519 469.794 252.322 469.793 252.203 469.435 L 251.382 466.961 C 251.264 466.603 250.879 466.212 250.524 466.086 L 248.042 465.215 C 247.687 465.09 247.688 464.893 248.046 464.774 L 250.52 463.953 C 250.878 463.834 251.269 463.45 251.393 463.095 L 252.266 460.612 C 252.39 460.258 252.588 460.259 252.707 460.617 L 253.527 463.09 C 253.645 463.448 254.031 463.84 254.386 463.964 L 256.868 464.836 C 257.223 464.96 257.222 465.159 256.864 465.277 Z " fill="rgb(242,229,114)"/><path d=" M 228.567 285.712 L 226.093 286.532 C 225.735 286.65 225.344 287.035 225.219 287.391 L 224.348 289.874 C 224.222 290.228 224.025 290.226 223.907 289.869 L 223.085 287.394 C 222.967 287.037 222.582 286.646 222.227 286.521 L 219.745 285.65 C 219.39 285.524 219.391 285.327 219.749 285.209 L 222.223 284.387 C 222.581 284.269 222.972 283.884 223.096 283.529 L 223.969 281.047 C 224.093 280.692 224.291 280.693 224.41 281.051 L 225.23 283.525 C 225.349 283.883 225.734 284.274 226.089 284.398 L 228.572 285.271 C 228.926 285.395 228.925 285.593 228.567 285.712 Z " fill="rgb(242,229,114)"/><path d=" M 515.351 375.358 L 512.877 376.179 C 512.519 376.298 512.128 376.683 512.002 377.037 L 511.131 379.52 C 511.006 379.875 510.809 379.873 510.69 379.515 L 509.869 377.042 C 509.75 376.684 509.366 376.292 509.011 376.168 L 506.528 375.296 C 506.174 375.172 506.175 374.974 506.533 374.855 L 509.007 374.035 C 509.365 373.916 509.756 373.532 509.881 373.176 L 510.752 370.693 C 510.877 370.338 511.075 370.341 511.193 370.698 L 512.015 373.173 C 512.133 373.529 512.518 373.921 512.872 374.046 L 515.355 374.917 C 515.71 375.042 515.709 375.24 515.351 375.358 Z " fill="rgb(242,229,114)"/><path d=" M 454.147 272.038 L 451.674 272.859 C 451.316 272.978 450.924 273.363 450.799 273.717 L 449.928 276.2 C 449.803 276.555 449.605 276.554 449.487 276.196 L 448.666 273.722 C 448.547 273.364 448.162 272.973 447.808 272.848 L 445.325 271.976 C 444.97 271.852 444.971 271.654 445.329 271.535 L 447.803 270.715 C 448.161 270.596 448.552 270.211 448.677 269.856 L 449.549 267.373 C 449.673 267.019 449.871 267.02 449.99 267.378 L 450.81 269.851 C 450.929 270.209 451.314 270.601 451.669 270.726 L 454.152 271.597 C 454.506 271.722 454.505 271.92 454.147 272.038 Z " fill="rgb(242,229,114)"/><path d=" M 94.429 463.989 L 91.955 464.811 C 91.597 464.929 91.206 465.314 91.082 465.67 L 90.209 468.151 C 90.085 468.507 89.887 468.505 89.768 468.148 L 88.948 465.673 C 88.83 465.316 88.444 464.924 88.089 464.8 L 85.607 463.927 C 85.252 463.803 85.253 463.606 85.611 463.487 L 88.085 462.666 C 88.443 462.547 88.834 462.163 88.959 461.807 L 89.83 459.325 C 89.956 458.97 90.153 458.972 90.272 459.329 L 91.093 461.804 C 91.211 462.161 91.596 462.552 91.951 462.677 L 94.433 463.548 C 94.788 463.673 94.787 463.871 94.429 463.989 Z " fill="rgb(242,229,114)"/><path d=" M 182.488 474.634 L 180.014 475.455 C 179.656 475.574 179.265 475.958 179.141 476.313 L 178.269 478.796 C 178.144 479.15 177.946 479.149 177.828 478.791 L 177.006 476.317 C 176.888 475.959 176.503 475.568 176.149 475.444 L 173.666 474.572 C 173.311 474.446 173.312 474.249 173.67 474.131 L 176.144 473.309 C 176.502 473.191 176.893 472.806 177.019 472.451 L 177.89 469.969 C 178.015 469.614 178.212 469.615 178.331 469.973 L 179.152 472.447 C 179.271 472.805 179.655 473.196 180.01 473.322 L 182.493 474.193 C 182.847 474.318 182.846 474.515 182.488 474.634 Z " fill="rgb(242,229,114)"/><path d=" M 415.846 468.668 L 413.372 469.489 C 413.014 469.607 412.623 469.992 412.498 470.348 L 411.626 472.829 C 411.502 473.185 411.304 473.183 411.185 472.826 L 410.365 470.351 C 410.246 469.994 409.861 469.603 409.506 469.478 L 407.023 468.606 C 406.669 468.481 406.67 468.284 407.028 468.166 L 409.501 467.344 C 409.859 467.226 410.251 466.841 410.376 466.485 L 411.247 464.004 C 411.372 463.648 411.57 463.65 411.688 464.007 L 412.509 466.482 C 412.628 466.839 413.013 467.23 413.367 467.355 L 415.85 468.228 C 416.205 468.352 416.204 468.549 415.846 468.668 Z " fill="rgb(242,229,114)"/><path d=" M 311.662 503.08 L 309.188 503.902 C 308.83 504.02 308.439 504.405 308.315 504.759 L 307.443 507.242 C 307.319 507.597 307.12 507.596 307.002 507.238 L 306.182 504.764 C 306.063 504.406 305.677 504.015 305.323 503.89 L 302.84 503.018 C 302.485 502.893 302.486 502.696 302.844 502.577 L 305.318 501.756 C 305.676 501.637 306.067 501.253 306.193 500.898 L 307.064 498.415 C 307.189 498.061 307.386 498.062 307.505 498.42 L 308.326 500.894 C 308.445 501.252 308.829 501.643 309.184 501.768 L 311.667 502.639 C 312.021 502.764 312.02 502.962 311.662 503.08 Z " fill="rgb(242,229,114)"/><path d=" M 168.453 420.793 L 165.978 421.613 C 165.622 421.732 165.23 422.118 165.105 422.472 L 164.234 424.955 C 164.109 425.31 163.911 425.309 163.793 424.951 L 162.972 422.477 C 162.853 422.119 162.468 421.727 162.114 421.602 L 159.631 420.731 C 159.275 420.606 159.277 420.409 159.634 420.29 L 162.109 419.469 C 162.466 419.35 162.859 418.966 162.983 418.611 L 163.855 416.128 C 163.979 415.774 164.177 415.775 164.296 416.133 L 165.116 418.606 C 165.235 418.964 165.619 419.356 165.975 419.48 L 168.457 420.352 C 168.812 420.476 168.81 420.675 168.453 420.793 Z " fill="rgb(242,229,114)"/><path d=" M 500.697 318.343 L 498.224 319.165 C 497.866 319.283 497.474 319.668 497.349 320.022 L 496.478 322.505 C 496.353 322.86 496.155 322.859 496.037 322.501 L 495.216 320.027 C 495.097 319.669 494.712 319.278 494.358 319.152 L 491.875 318.281 C 491.52 318.156 491.521 317.959 491.879 317.84 L 494.353 317.019 C 494.711 316.9 495.102 316.516 495.227 316.161 L 496.099 313.678 C 496.223 313.324 496.421 313.325 496.54 313.683 L 497.36 316.157 C 497.479 316.515 497.864 316.906 498.219 317.031 L 500.702 317.902 C 501.056 318.027 501.055 318.225 500.697 318.343 Z " fill="rgb(242,229,114)"/><path d=" M 348.236 414.329 L 345.761 415.15 C 345.404 415.268 345.013 415.654 344.888 416.008 L 344.017 418.491 C 343.891 418.846 343.694 418.845 343.576 418.487 L 342.754 416.013 C 342.636 415.655 342.251 415.264 341.895 415.138 L 339.414 414.267 C 339.058 414.142 339.06 413.945 339.417 413.826 L 341.892 413.005 C 342.249 412.886 342.641 412.502 342.765 412.147 L 343.638 409.664 C 343.762 409.31 343.959 409.311 344.078 409.669 L 344.899 412.143 C 345.018 412.501 345.402 412.892 345.758 413.016 L 348.239 413.888 C 348.595 414.012 348.593 414.211 348.236 414.329 Z " fill="rgb(242,229,114)"/><path d=" M 536.654 503.08 L 534.18 503.902 C 533.822 504.02 533.431 504.405 533.307 504.759 L 532.434 507.242 C 532.31 507.597 532.112 507.596 531.993 507.238 L 531.173 504.764 C 531.055 504.406 530.669 504.015 530.314 503.89 L 527.832 503.018 C 527.477 502.893 527.478 502.696 527.836 502.577 L 530.31 501.756 C 530.668 501.637 531.059 501.253 531.184 500.898 L 532.055 498.415 C 532.181 498.061 532.378 498.062 532.497 498.42 L 533.318 500.894 C 533.436 501.252 533.821 501.643 534.176 501.768 L 536.658 502.639 C 537.013 502.764 537.012 502.962 536.654 503.08 Z " fill="rgb(242,229,114)"/><path d=" M 343.558 465.277 L 341.083 466.097 C 340.726 466.216 340.335 466.602 340.21 466.956 L 339.337 469.439 C 339.213 469.794 339.016 469.793 338.897 469.435 L 338.076 466.961 C 337.957 466.603 337.573 466.212 337.217 466.086 L 334.736 465.215 C 334.38 465.09 334.382 464.893 334.739 464.774 L 337.214 463.953 C 337.571 463.834 337.962 463.45 338.087 463.095 L 338.959 460.612 C 339.084 460.258 339.281 460.259 339.399 460.617 L 340.221 463.09 C 340.339 463.448 340.724 463.84 341.08 463.964 L 343.561 464.836 C 343.917 464.96 343.915 465.159 343.558 465.277 Z " fill="rgb(242,229,114)"/><path d=" M 348.236 370.68 L 345.761 371.501 C 345.404 371.62 345.013 372.004 344.888 372.359 L 344.017 374.842 C 343.891 375.196 343.694 375.195 343.576 374.837 L 342.754 372.363 C 342.636 372.005 342.251 371.614 341.895 371.49 L 339.414 370.618 C 339.058 370.494 339.06 370.295 339.417 370.177 L 341.892 369.357 C 342.249 369.238 342.641 368.852 342.765 368.498 L 343.638 366.015 C 343.762 365.66 343.959 365.661 344.078 366.019 L 344.899 368.493 C 345.018 368.851 345.402 369.242 345.758 369.368 L 348.239 370.239 C 348.595 370.364 348.593 370.561 348.236 370.68 Z " fill="rgb(242,229,114)"/><path d=" M 268.853 411.436 L 266.379 412.257 C 266.021 412.375 265.63 412.76 265.505 413.116 L 264.633 415.597 C 264.508 415.953 264.311 415.951 264.192 415.594 L 263.371 413.119 C 263.252 412.762 262.868 412.371 262.513 412.246 L 260.031 411.375 C 259.676 411.249 259.677 411.052 260.035 410.933 L 262.509 410.112 C 262.867 409.994 263.258 409.609 263.383 409.253 L 264.254 406.772 C 264.38 406.416 264.577 406.418 264.695 406.775 L 265.517 409.25 C 265.635 409.607 266.02 409.999 266.375 410.123 L 268.857 410.995 C 269.212 411.12 269.211 411.317 268.853 411.436 Z " fill="rgb(242,229,114)"/><path d=" M 520.029 447.931 L 517.555 448.752 C 517.197 448.871 516.806 449.255 516.682 449.611 L 515.809 452.092 C 515.685 452.448 515.487 452.446 515.368 452.089 L 514.548 449.614 C 514.43 449.257 514.044 448.865 513.689 448.741 L 511.207 447.869 C 510.852 447.744 510.853 447.547 511.211 447.429 L 513.685 446.607 C 514.043 446.489 514.434 446.104 514.559 445.748 L 515.43 443.267 C 515.556 442.911 515.753 442.913 515.872 443.27 L 516.693 445.745 C 516.811 446.102 517.196 446.493 517.551 446.618 L 520.033 447.49 C 520.388 447.615 520.387 447.812 520.029 447.931 Z " fill="rgb(242,229,114)"/><path d=" M 360.624 290.39 L 358.149 291.21 C 357.792 291.329 357.4 291.714 357.276 292.069 L 356.403 294.552 C 356.279 294.906 356.081 294.905 355.962 294.547 L 355.142 292.074 C 355.024 291.716 354.639 291.324 354.283 291.199 L 351.802 290.328 C 351.446 290.203 351.448 290.005 351.805 289.887 L 354.28 289.066 C 354.637 288.947 355.028 288.562 355.153 288.208 L 356.024 285.725 C 356.15 285.37 356.347 285.371 356.465 285.729 L 357.287 288.203 C 357.405 288.561 357.79 288.952 358.146 289.077 L 360.627 289.949 C 360.983 290.073 360.981 290.271 360.624 290.39 Z " fill="rgb(242,229,114)"/><path d=" M 290.145 308.987 L 287.671 309.807 C 287.313 309.925 286.922 310.31 286.798 310.666 L 285.926 313.149 C 285.801 313.503 285.603 313.501 285.484 313.144 L 284.664 310.669 C 284.546 310.312 284.16 309.921 283.805 309.796 L 281.323 308.925 C 280.968 308.799 280.969 308.602 281.327 308.484 L 283.801 307.662 C 284.159 307.544 284.55 307.159 284.675 306.804 L 285.547 304.322 C 285.672 303.967 285.869 303.968 285.988 304.326 L 286.809 306.8 C 286.928 307.158 287.312 307.549 287.667 307.673 L 290.149 308.546 C 290.504 308.67 290.503 308.868 290.145 308.987 Z " fill="rgb(242,229,114)"/><path d=" M 403.164 336.077 L 400.69 336.898 C 400.332 337.016 399.941 337.401 399.816 337.756 L 398.945 340.238 C 398.819 340.593 398.622 340.592 398.503 340.234 L 397.682 337.76 C 397.564 337.402 397.179 337.011 396.824 336.886 L 394.342 336.015 C 393.987 335.889 393.988 335.692 394.346 335.573 L 396.82 334.752 C 397.178 334.634 397.569 334.249 397.693 333.894 L 398.566 331.412 C 398.69 331.057 398.888 331.058 399.007 331.416 L 399.827 333.89 C 399.945 334.248 400.331 334.639 400.686 334.764 L 403.168 335.635 C 403.523 335.761 403.522 335.958 403.164 336.077 Z " fill="rgb(242,229,114)"/></g></g></g></svg>