<?xml version="1.0" encoding="UTF-8" standalone="no"?><!-- Generator: Gravit.io --><svg xmlns="http://www.w3.org/2000/svg" xmlns:xlink="http://www.w3.org/1999/xlink" style="isolation:isolate" viewBox="0 0 512 256" width="512pt" height="256pt"><defs><clipPath id="_clipPath_Zuo2oEe6Hoykmz690SLxF7AeLqTJDKYy"><rect width="512" height="256"/></clipPath></defs><g clip-path="url(#_clipPath_Zuo2oEe6Hoykmz690SLxF7AeLqTJDKYy)"><rect width="512" height="256" style="fill:rgb(68,68,68)" fill-opacity="0"/><path d=" M 409.757 147.22 L 407.525 147.961 C 407.202 148.068 406.849 148.415 406.736 148.736 L 405.95 150.975 C 405.837 151.296 405.659 151.294 405.552 150.972 L 404.811 148.739 C 404.704 148.417 404.357 148.064 404.037 147.951 L 401.797 147.165 C 401.477 147.052 401.478 146.874 401.801 146.767 L 404.033 146.026 C 404.356 145.919 404.709 145.572 404.821 145.251 L 405.608 143.012 C 405.72 142.691 405.899 142.693 406.006 143.015 L 406.746 145.248 C 406.853 145.57 407.201 145.924 407.521 146.036 L 409.761 146.823 C 410.081 146.935 410.08 147.113 409.757 147.22 Z " fill="rgb(242,229,114)"/><path d=" M 36.968 154.052 L 34.735 154.793 C 34.413 154.9 34.059 155.247 33.947 155.567 L 33.16 157.807 C 33.048 158.127 32.87 158.126 32.763 157.803 L 32.022 155.571 C 31.915 155.248 31.568 154.895 31.247 154.782 L 29.008 153.996 C 28.687 153.883 28.689 153.705 29.011 153.598 L 31.244 152.857 C 31.566 152.75 31.919 152.403 32.032 152.083 L 32.818 149.843 C 32.931 149.523 33.109 149.524 33.216 149.847 L 33.957 152.079 C 34.064 152.402 34.411 152.755 34.732 152.867 L 36.971 153.654 C 37.292 153.767 37.29 153.945 36.968 154.052 Z " fill="rgb(242,229,114)"/><path d=" M 206.226 110.448 L 203.994 111.189 C 203.671 111.296 203.318 111.643 203.205 111.963 L 202.419 114.203 C 202.306 114.523 202.128 114.522 202.021 114.199 L 201.28 111.967 C 201.173 111.644 200.826 111.291 200.506 111.179 L 198.266 110.392 C 197.946 110.28 197.947 110.101 198.27 109.994 L 200.502 109.254 C 200.825 109.147 201.178 108.799 201.29 108.479 L 202.077 106.239 C 202.189 105.919 202.368 105.92 202.475 106.243 L 203.215 108.475 C 203.322 108.798 203.67 109.151 203.99 109.264 L 206.23 110.05 C 206.55 110.163 206.549 110.341 206.226 110.448 Z " fill="rgb(242,229,114)"/><path d=" M 109.757 33.785 L 107.525 34.525 C 107.202 34.632 106.849 34.979 106.736 35.3 L 105.95 37.54 C 105.837 37.86 105.659 37.858 105.552 37.536 L 104.811 35.303 C 104.704 34.981 104.357 34.628 104.037 34.515 L 101.797 33.729 C 101.477 33.616 101.478 33.438 101.801 33.331 L 104.033 32.59 C 104.356 32.483 104.709 32.136 104.821 31.816 L 105.608 29.576 C 105.72 29.256 105.899 29.257 106.006 29.58 L 106.746 31.812 C 106.853 32.135 107.201 32.488 107.521 32.6 L 109.761 33.387 C 110.081 33.499 110.08 33.678 109.757 33.785 Z " fill="rgb(242,229,114)"/><path d=" M 48.458 63.227 L 46.225 63.968 C 45.903 64.075 45.549 64.422 45.437 64.742 L 44.65 66.982 C 44.538 67.302 44.359 67.301 44.252 66.978 L 43.512 64.746 C 43.405 64.423 43.058 64.07 42.737 63.957 L 40.498 63.171 C 40.177 63.058 40.179 62.88 40.501 62.773 L 42.734 62.032 C 43.056 61.925 43.409 61.578 43.522 61.258 L 44.308 59.018 C 44.421 58.698 44.599 58.699 44.706 59.022 L 45.447 61.254 C 45.554 61.577 45.901 61.93 46.221 62.043 L 48.461 62.829 C 48.782 62.942 48.78 63.12 48.458 63.227 Z " fill="rgb(242,229,114)"/><path d=" M 98.16 106.227 L 95.927 106.968 C 95.605 107.075 95.251 107.422 95.139 107.742 L 94.352 109.982 C 94.24 110.302 94.062 110.301 93.955 109.978 L 93.214 107.746 C 93.107 107.423 92.76 107.07 92.439 106.957 L 90.2 106.171 C 89.879 106.058 89.881 105.88 90.203 105.773 L 92.436 105.032 C 92.758 104.925 93.111 104.578 93.224 104.258 L 94.01 102.018 C 94.123 101.698 94.301 101.699 94.408 102.022 L 95.149 104.254 C 95.256 104.577 95.603 104.93 95.924 105.043 L 98.163 105.829 C 98.484 105.942 98.482 106.12 98.16 106.227 Z " fill="rgb(242,229,114)"/><path d=" M 151.988 57.844 L 149.755 58.585 C 149.433 58.692 149.08 59.039 148.967 59.36 L 148.181 61.599 C 148.068 61.92 147.89 61.918 147.783 61.596 L 147.042 59.363 C 146.935 59.041 146.588 58.687 146.268 58.575 L 144.028 57.788 C 143.707 57.676 143.709 57.498 144.031 57.391 L 146.264 56.65 C 146.586 56.543 146.94 56.196 147.052 55.875 L 147.839 53.636 C 147.951 53.315 148.13 53.317 148.237 53.639 L 148.977 55.872 C 149.084 56.194 149.431 56.547 149.752 56.66 L 151.991 57.446 C 152.312 57.559 152.31 57.737 151.988 57.844 Z " fill="rgb(242,229,114)"/><path d=" M 231.757 195.799 L 229.525 196.539 C 229.202 196.646 228.849 196.994 228.736 197.314 L 227.95 199.554 C 227.837 199.874 227.659 199.873 227.552 199.55 L 226.811 197.318 C 226.704 196.995 226.357 196.642 226.037 196.529 L 223.797 195.743 C 223.477 195.63 223.478 195.452 223.801 195.345 L 226.033 194.604 C 226.356 194.497 226.709 194.15 226.821 193.83 L 227.608 191.59 C 227.72 191.27 227.899 191.271 228.006 191.594 L 228.746 193.826 C 228.853 194.149 229.201 194.502 229.521 194.614 L 231.761 195.401 C 232.081 195.513 232.08 195.692 231.757 195.799 Z " fill="rgb(242,229,114)"/><path d=" M 206.226 33.785 L 203.994 34.525 C 203.671 34.632 203.318 34.979 203.205 35.3 L 202.419 37.54 C 202.306 37.86 202.128 37.858 202.021 37.536 L 201.28 35.303 C 201.173 34.981 200.826 34.628 200.506 34.515 L 198.266 33.729 C 197.946 33.616 197.947 33.438 198.27 33.331 L 200.502 32.59 C 200.825 32.483 201.178 32.136 201.29 31.816 L 202.077 29.576 C 202.189 29.256 202.368 29.257 202.475 29.58 L 203.215 31.812 C 203.322 32.135 203.67 32.488 203.99 32.6 L 206.23 33.387 C 206.55 33.499 206.549 33.678 206.226 33.785 Z " fill="rgb(242,229,114)"/><path d=" M 464.978 114.669 L 462.746 115.41 C 462.423 115.517 462.07 115.864 461.957 116.184 L 461.171 118.424 C 461.058 118.744 460.88 118.743 460.773 118.42 L 460.032 116.188 C 459.925 115.865 459.578 115.512 459.258 115.4 L 457.018 114.613 C 456.698 114.501 456.699 114.322 457.022 114.215 L 459.254 113.475 C 459.577 113.368 459.93 113.021 460.043 112.7 L 460.829 110.46 C 460.942 110.14 461.12 110.142 461.227 110.464 L 461.968 112.697 C 462.075 113.019 462.422 113.372 462.742 113.485 L 464.982 114.271 C 465.302 114.384 465.301 114.562 464.978 114.669 Z " fill="rgb(242,229,114)"/><path d=" M 409.757 21.448 L 407.525 22.189 C 407.202 22.296 406.849 22.643 406.736 22.963 L 405.95 25.203 C 405.837 25.523 405.659 25.522 405.552 25.199 L 404.811 22.967 C 404.704 22.644 404.357 22.291 404.037 22.179 L 401.797 21.392 C 401.477 21.28 401.478 21.101 401.801 20.994 L 404.033 20.254 C 404.356 20.147 404.709 19.799 404.821 19.479 L 405.608 17.239 C 405.72 16.919 405.899 16.92 406.006 17.243 L 406.746 19.475 C 406.853 19.798 407.201 20.151 407.521 20.264 L 409.761 21.05 C 410.081 21.163 410.08 21.341 409.757 21.448 Z " fill="rgb(242,229,114)"/><path d=" M 85.199 194.637 L 82.967 195.378 C 82.644 195.485 82.291 195.832 82.179 196.153 L 81.392 198.392 C 81.28 198.713 81.101 198.711 80.994 198.389 L 80.254 196.156 C 80.147 195.834 79.799 195.48 79.479 195.368 L 77.239 194.581 C 76.919 194.469 76.92 194.291 77.243 194.184 L 79.475 193.443 C 79.798 193.336 80.151 192.989 80.264 192.668 L 81.05 190.429 C 81.163 190.108 81.341 190.11 81.448 190.432 L 82.189 192.665 C 82.296 192.987 82.643 193.34 82.963 193.453 L 85.203 194.239 C 85.523 194.352 85.522 194.53 85.199 194.637 Z " fill="rgb(242,229,114)"/><path d=" M 164.651 204.241 L 162.419 204.982 C 162.096 205.089 161.743 205.436 161.631 205.756 L 160.844 207.996 C 160.731 208.316 160.553 208.315 160.446 207.992 L 159.705 205.76 C 159.598 205.437 159.251 205.084 158.931 204.972 L 156.691 204.185 C 156.371 204.072 156.372 203.894 156.695 203.787 L 158.927 203.046 C 159.25 202.939 159.603 202.592 159.716 202.272 L 160.502 200.032 C 160.615 199.712 160.793 199.713 160.9 200.036 L 161.641 202.268 C 161.748 202.591 162.095 202.944 162.415 203.057 L 164.655 203.843 C 164.975 203.956 164.974 204.134 164.651 204.241 Z " fill="rgb(242,229,114)"/><path d=" M 375.199 198.858 L 372.967 199.599 C 372.644 199.706 372.291 200.053 372.179 200.374 L 371.392 202.613 C 371.28 202.934 371.101 202.932 370.994 202.61 L 370.254 200.377 C 370.147 200.055 369.799 199.702 369.479 199.589 L 367.239 198.802 C 366.919 198.69 366.92 198.512 367.243 198.405 L 369.475 197.664 C 369.798 197.557 370.151 197.21 370.264 196.889 L 371.05 194.65 C 371.163 194.329 371.341 194.331 371.448 194.653 L 372.189 196.886 C 372.296 197.208 372.643 197.561 372.963 197.674 L 375.203 198.461 C 375.523 198.573 375.522 198.751 375.199 198.858 Z " fill="rgb(242,229,114)"/><path d=" M 281.199 229.907 L 278.967 230.648 C 278.644 230.755 278.291 231.102 278.179 231.422 L 277.392 233.662 C 277.28 233.982 277.101 233.981 276.994 233.658 L 276.254 231.426 C 276.147 231.103 275.799 230.75 275.479 230.638 L 273.239 229.851 C 272.919 229.738 272.92 229.56 273.243 229.453 L 275.475 228.712 C 275.798 228.605 276.151 228.258 276.264 227.938 L 277.05 225.698 C 277.163 225.378 277.341 225.379 277.448 225.702 L 278.189 227.934 C 278.296 228.257 278.643 228.61 278.963 228.723 L 281.203 229.509 C 281.523 229.622 281.522 229.8 281.199 229.907 Z " fill="rgb(242,229,114)"/><path d=" M 151.988 155.663 L 149.755 156.403 C 149.433 156.51 149.08 156.858 148.967 157.178 L 148.181 159.418 C 148.068 159.738 147.89 159.737 147.783 159.414 L 147.042 157.182 C 146.935 156.859 146.588 156.506 146.268 156.393 L 144.028 155.607 C 143.707 155.494 143.709 155.316 144.031 155.209 L 146.264 154.468 C 146.586 154.361 146.94 154.014 147.052 153.694 L 147.839 151.454 C 147.951 151.134 148.13 151.135 148.237 151.458 L 148.977 153.69 C 149.084 154.013 149.431 154.366 149.752 154.478 L 151.991 155.265 C 152.312 155.377 152.31 155.556 151.988 155.663 Z " fill="rgb(242,229,114)"/><path d=" M 451.757 63.227 L 449.525 63.968 C 449.202 64.075 448.849 64.422 448.736 64.742 L 447.95 66.982 C 447.837 67.302 447.659 67.301 447.552 66.978 L 446.811 64.746 C 446.704 64.423 446.357 64.07 446.037 63.957 L 443.797 63.171 C 443.477 63.058 443.478 62.88 443.801 62.773 L 446.033 62.032 C 446.356 61.925 446.709 61.578 446.821 61.258 L 447.608 59.018 C 447.72 58.698 447.899 58.699 448.006 59.022 L 448.746 61.254 C 448.853 61.577 449.201 61.93 449.521 62.043 L 451.761 62.829 C 452.081 62.942 452.08 63.12 451.757 63.227 Z " fill="rgb(242,229,114)"/><path d=" M 314.198 149.831 L 311.965 150.571 C 311.643 150.678 311.29 151.026 311.177 151.346 L 310.391 153.586 C 310.278 153.906 310.1 153.905 309.993 153.582 L 309.252 151.35 C 309.145 151.027 308.798 150.674 308.477 150.561 L 306.238 149.775 C 305.917 149.662 305.919 149.484 306.241 149.377 L 308.474 148.636 C 308.796 148.529 309.15 148.182 309.262 147.862 L 310.049 145.622 C 310.161 145.302 310.339 145.303 310.446 145.626 L 311.187 147.858 C 311.294 148.181 311.641 148.534 311.962 148.646 L 314.201 149.433 C 314.522 149.545 314.52 149.724 314.198 149.831 Z " fill="rgb(242,229,114)"/><path d=" M 484.199 229.907 L 481.967 230.648 C 481.644 230.755 481.291 231.102 481.179 231.422 L 480.392 233.662 C 480.28 233.982 480.101 233.981 479.994 233.658 L 479.254 231.426 C 479.147 231.103 478.799 230.75 478.479 230.638 L 476.239 229.851 C 475.919 229.738 475.92 229.56 476.243 229.453 L 478.475 228.712 C 478.798 228.605 479.151 228.258 479.264 227.938 L 480.05 225.698 C 480.163 225.378 480.341 225.379 480.448 225.702 L 481.189 227.934 C 481.296 228.257 481.643 228.61 481.963 228.723 L 484.203 229.509 C 484.523 229.622 484.522 229.8 484.199 229.907 Z " fill="rgb(242,229,114)"/><path d=" M 309.977 195.799 L 307.744 196.539 C 307.422 196.646 307.069 196.994 306.956 197.314 L 306.169 199.554 C 306.057 199.874 305.879 199.873 305.772 199.55 L 305.031 197.318 C 304.924 196.995 304.577 196.642 304.256 196.529 L 302.017 195.743 C 301.696 195.63 301.698 195.452 302.02 195.345 L 304.253 194.604 C 304.575 194.497 304.928 194.15 305.041 193.83 L 305.828 191.59 C 305.94 191.27 306.118 191.271 306.225 191.594 L 306.966 193.826 C 307.073 194.149 307.42 194.502 307.741 194.614 L 309.98 195.401 C 310.301 195.513 310.299 195.692 309.977 195.799 Z " fill="rgb(242,229,114)"/><path d=" M 314.198 110.448 L 311.965 111.189 C 311.643 111.296 311.29 111.643 311.177 111.963 L 310.391 114.203 C 310.278 114.523 310.1 114.522 309.993 114.199 L 309.252 111.967 C 309.145 111.644 308.798 111.291 308.477 111.179 L 306.238 110.392 C 305.917 110.28 305.919 110.101 306.241 109.994 L 308.474 109.254 C 308.796 109.147 309.15 108.799 309.262 108.479 L 310.049 106.239 C 310.161 105.919 310.339 105.92 310.446 106.243 L 311.187 108.475 C 311.294 108.798 311.641 109.151 311.962 109.264 L 314.201 110.05 C 314.522 110.163 314.52 110.341 314.198 110.448 Z " fill="rgb(242,229,114)"/><path d=" M 242.574 147.22 L 240.342 147.961 C 240.019 148.068 239.666 148.415 239.553 148.736 L 238.767 150.975 C 238.654 151.296 238.476 151.294 238.369 150.972 L 237.628 148.739 C 237.521 148.417 237.174 148.064 236.854 147.951 L 234.614 147.165 C 234.294 147.052 234.295 146.874 234.618 146.767 L 236.85 146.026 C 237.173 145.919 237.526 145.572 237.639 145.251 L 238.425 143.012 C 238.538 142.691 238.716 142.693 238.823 143.015 L 239.564 145.248 C 239.671 145.57 240.018 145.924 240.338 146.036 L 242.578 146.823 C 242.898 146.935 242.897 147.113 242.574 147.22 Z " fill="rgb(242,229,114)"/><path d=" M 469.199 180.148 L 466.967 180.889 C 466.644 180.996 466.291 181.343 466.179 181.664 L 465.392 183.903 C 465.28 184.224 465.101 184.222 464.994 183.9 L 464.254 181.667 C 464.147 181.345 463.799 180.991 463.479 180.879 L 461.239 180.092 C 460.919 179.98 460.92 179.802 461.243 179.695 L 463.475 178.954 C 463.798 178.847 464.151 178.5 464.264 178.179 L 465.05 175.94 C 465.163 175.619 465.341 175.621 465.448 175.943 L 466.189 178.176 C 466.296 178.498 466.643 178.851 466.963 178.964 L 469.203 179.75 C 469.523 179.863 469.522 180.041 469.199 180.148 Z " fill="rgb(242,229,114)"/><path d=" M 325.375 38.006 L 323.142 38.746 C 322.82 38.853 322.466 39.201 322.354 39.521 L 321.567 41.761 C 321.455 42.081 321.276 42.08 321.169 41.757 L 320.429 39.525 C 320.322 39.202 319.975 38.849 319.654 38.736 L 317.415 37.95 C 317.094 37.837 317.096 37.659 317.418 37.552 L 319.651 36.811 C 319.973 36.704 320.326 36.357 320.439 36.037 L 321.225 33.797 C 321.338 33.477 321.516 33.478 321.623 33.801 L 322.364 36.033 C 322.471 36.356 322.818 36.709 323.139 36.821 L 325.378 37.608 C 325.699 37.72 325.697 37.899 325.375 38.006 Z " fill="rgb(242,229,114)"/><path d=" M 261.785 54.785 L 259.553 55.525 C 259.23 55.632 258.877 55.979 258.765 56.3 L 257.978 58.54 C 257.866 58.86 257.687 58.858 257.58 58.536 L 256.84 56.303 C 256.733 55.981 256.385 55.628 256.065 55.515 L 253.825 54.729 C 253.505 54.616 253.506 54.438 253.829 54.331 L 256.061 53.59 C 256.384 53.483 256.737 53.136 256.85 52.816 L 257.636 50.576 C 257.749 50.256 257.927 50.257 258.034 50.58 L 258.775 52.812 C 258.882 53.135 259.229 53.488 259.549 53.6 L 261.789 54.387 C 262.109 54.499 262.108 54.678 261.785 54.785 Z " fill="rgb(242,229,114)"/><path d=" M 363.757 79.227 L 361.525 79.968 C 361.202 80.075 360.849 80.422 360.736 80.742 L 359.95 82.982 C 359.837 83.302 359.659 83.301 359.552 82.978 L 358.811 80.746 C 358.704 80.423 358.357 80.07 358.037 79.957 L 355.797 79.171 C 355.477 79.058 355.478 78.88 355.801 78.773 L 358.033 78.032 C 358.356 77.925 358.709 77.578 358.821 77.258 L 359.608 75.018 C 359.72 74.698 359.899 74.699 360.006 75.022 L 360.746 77.254 C 360.853 77.577 361.201 77.93 361.521 78.043 L 363.761 78.829 C 364.081 78.942 364.08 79.12 363.757 79.227 Z " fill="rgb(242,229,114)"/></g></svg>