<?xml version="1.0" encoding="UTF-8" standalone="no"?><!-- Generator: Gravit.io --><svg xmlns="http://www.w3.org/2000/svg" xmlns:xlink="http://www.w3.org/1999/xlink" style="isolation:isolate" viewBox="0 0 128 128" width="128pt" height="128pt"><defs><clipPath id="_clipPath_x19B92eaEW2JiO86sJrpOhuWxx92WI6M"><rect width="128" height="128"/></clipPath></defs><g clip-path="url(#_clipPath_x19B92eaEW2JiO86sJrpOhuWxx92WI6M)"><clipPath id="_clipPath_JRWQInb0O3RaXSTsL3PcL8TRnYsxFhYY"><circle vector-effect="non-scaling-stroke" cx="64" cy="64" r="64" fill="rgb(255,255,255)"/></clipPath><g clip-path="url(#_clipPath_JRWQInb0O3RaXSTsL3PcL8TRnYsxFhYY)"><g><path d=" M 89.729 81.272 L 89.729 81.272 Q 85.545 81.272 81.316 80.042 L 81.316 80.042 L 81.316 80.042 Q 77.087 78.812 73.882 76.446 L 73.882 76.446 L 74.327 80.515 L 69.698 80.515 L 69.164 60.357 L 72.636 60.357 L 72.636 60.357 Q 73.081 68.496 77.888 72.897 L 77.888 72.897 L 77.888 72.897 Q 82.696 77.297 90.085 77.297 L 90.085 77.297 L 90.085 77.297 Q 95.516 77.297 99.21 74.127 L 99.21 74.127 L 99.21 74.127 Q 102.905 70.957 102.905 65.468 L 102.905 65.468 L 102.905 65.468 Q 102.905 61.398 100.813 58.512 L 100.813 58.512 L 100.813 58.512 Q 98.721 55.625 95.649 53.685 L 95.649 53.685 L 95.649 53.685 Q 92.578 51.745 87.325 49.19 L 87.325 49.19 L 87.325 49.19 Q 81.36 46.161 77.844 43.89 L 77.844 43.89 L 77.844 43.89 Q 74.327 41.619 71.834 37.88 L 71.834 37.88 L 71.834 37.88 Q 69.342 34.142 69.342 28.653 L 69.342 28.653 L 69.342 28.653 Q 69.342 24.868 70.989 21.082 L 70.989 21.082 L 70.989 21.082 Q 72.636 17.297 76.686 14.647 L 76.686 14.647 L 76.686 14.647 Q 80.737 11.997 87.414 11.997 L 87.414 11.997 L 87.414 11.997 Q 91.42 11.997 95.471 13.085 L 95.471 13.085 L 95.471 13.085 Q 99.522 14.174 102.905 16.823 L 102.905 16.823 L 102.549 12.754 L 107.089 12.754 L 107.089 33.574 L 103.884 33.574 L 103.884 33.574 Q 103.439 26.098 99.388 20.94 L 99.388 20.94 L 99.388 20.94 Q 95.338 15.782 88.037 15.782 L 88.037 15.782 L 88.037 15.782 Q 82.696 15.782 79.669 18.953 L 79.669 18.953 L 79.669 18.953 Q 76.642 22.123 76.642 26.855 L 76.642 26.855 L 76.642 26.855 Q 76.642 30.641 78.689 33.385 L 78.689 33.385 L 78.689 33.385 Q 80.737 36.13 83.675 37.928 L 83.675 37.928 L 83.675 37.928 Q 86.613 39.726 91.955 42.376 L 91.955 42.376 L 91.955 42.376 Q 98.008 45.31 101.703 47.676 L 101.703 47.676 L 101.703 47.676 Q 105.398 50.042 107.979 53.874 L 107.979 53.874 L 107.979 53.874 Q 110.561 57.707 110.561 63.291 L 110.561 63.291 L 110.561 63.291 Q 110.561 68.591 108.113 72.66 L 108.113 72.66 L 108.113 72.66 Q 105.665 76.73 100.946 79.001 L 100.946 79.001 L 100.946 79.001 Q 96.228 81.272 89.729 81.272 L 89.729 81.272 L 89.729 81.272 Z " fill="rgb(223,172,46)"/><path d=" M 14.726 107.344 L 14.726 104.221 L 14.726 104.221 Q 17.777 104.126 19.084 102.707 L 19.084 102.707 L 19.084 102.707 Q 20.392 101.287 20.566 99.347 L 20.566 99.347 L 20.566 99.347 Q 20.74 97.407 20.74 92.581 L 20.74 92.581 L 20.74 51.697 L 20.74 51.697 Q 20.74 47.722 21.002 44.883 L 21.002 44.883 L 14.726 45.261 L 14.726 41.097 L 34.339 41.097 L 34.339 44.22 L 34.339 44.22 Q 31.288 44.315 29.981 45.735 L 29.981 45.735 L 29.981 45.735 Q 28.673 47.154 28.499 49.094 L 28.499 49.094 L 28.499 49.094 Q 28.324 51.034 28.324 55.861 L 28.324 55.861 L 28.324 96.461 L 28.324 96.461 Q 28.324 101.382 28.063 103.843 L 28.063 103.843 L 44.364 103.559 L 44.364 103.559 Q 49.943 103.464 52.733 99.726 L 52.733 99.726 L 52.733 99.726 Q 55.522 95.988 55.522 87.754 L 55.522 87.754 L 58.486 87.754 L 57.963 107.344 L 14.726 107.344 L 14.726 107.344 Z " fill="rgb(223,172,46)"/><mask id="_mask_EplcB0hy3BHZfmGHIQvHcfo0Bh3siEsi" x="-200%" y="-200%" width="400%" height="400%"><rect x="-200%" y="-200%" width="400%" height="400%" style="fill:white;"/><line x1="26.483" y1="40.828" x2="26.483" y2="11.997" fill="black" stroke="none"/></mask><line x1="26.483" y1="40.828" x2="26.483" y2="11.997" mask="url(#_mask_EplcB0hy3BHZfmGHIQvHcfo0Bh3siEsi)" vector-effect="non-scaling-stroke" stroke-width="2" stroke="rgb(223,172,46)" stroke-opacity="10000" stroke-linejoin="miter" stroke-linecap="square" stroke-miterlimit="3"/><mask id="_mask_ExKaRiyHuSo8TTIu7vGNMmrGpX3kKAIx" x="-200%" y="-200%" width="400%" height="400%"><rect x="-200%" y="-200%" width="400%" height="400%" style="fill:white;"/><line x1="116.966" y1="99.31" x2="58.483" y2="99.31" fill="black" stroke="none"/></mask><line x1="116.966" y1="99.31" x2="58.483" y2="99.31" mask="url(#_mask_ExKaRiyHuSo8TTIu7vGNMmrGpX3kKAIx)" vector-effect="non-scaling-stroke" stroke-width="2" stroke="rgb(223,172,46)" stroke-opacity="10000" stroke-linejoin="miter" stroke-linecap="square" stroke-miterlimit="3"/><mask id="_mask_Ycrt6nxXcYe8QHUtwH8DzQiNgw5ToaFW" x="-200%" y="-200%" width="400%" height="400%"><rect x="-200%" y="-200%" width="400%" height="400%" style="fill:white;"/><line x1="103.724" y1="20.966" x2="29.793" y2="103.724" fill="black" stroke="none"/></mask><line x1="103.724" y1="20.966" x2="29.793" y2="103.724" mask="url(#_mask_Ycrt6nxXcYe8QHUtwH8DzQiNgw5ToaFW)" vector-effect="non-scaling-stroke" stroke-width="2" stroke="rgb(223,172,46)" stroke-opacity="10000" stroke-linejoin="miter" stroke-linecap="square" stroke-miterlimit="3"/><mask id="_mask_85IZL6pO8Fd0aKGiXmC1k2u0FFc3PTNy" x="-200%" y="-200%" width="400%" height="400%"><rect x="-200%" y="-200%" width="400%" height="400%" style="fill:white;"/><line x1="69.517" y1="70.621" x2="27.586" y2="70.621" fill="black" stroke="none"/></mask><line x1="69.517" y1="70.621" x2="27.586" y2="70.621" mask="url(#_mask_85IZL6pO8Fd0aKGiXmC1k2u0FFc3PTNy)" vector-effect="non-scaling-stroke" stroke-width="2" stroke="rgb(223,172,46)" stroke-opacity="10000" stroke-linejoin="miter" stroke-linecap="square" stroke-miterlimit="3"/></g></g></g></svg>